HIERARCHY
ROOT Hips
{
	OFFSET 0.000000 0.000000 0.000000
	CHANNELS 6 Xposition Yposition Zposition Zrotation Yrotation Xrotation 
	JOINT LowerBack
	{
		OFFSET 0.000000 0.000000 0.000000
		CHANNELS 3 Zrotation Yrotation Xrotation
		JOINT Spine
		{
			OFFSET 0.028270 2.035590 -0.193380
			CHANNELS 3 Zrotation Yrotation Xrotation
			JOINT Spine1
			{
				OFFSET 0.056720 2.048850 -0.042750
				CHANNELS 3 Zrotation Yrotation Xrotation
				JOINT Neck
				{
					OFFSET 0.000000 0.000000 0.000000
					CHANNELS 3 Zrotation Yrotation Xrotation
					JOINT Neck1
					{
						OFFSET -0.054170 1.746240 0.172020
						CHANNELS 3 Zrotation Yrotation Xrotation
						JOINT Head
						{
							OFFSET 0.104070 1.761360 -0.123970
							CHANNELS 3 Zrotation Yrotation Xrotation
							End Site
							{
								OFFSET 0.000000 0.000000 0.000000
							}
						}
					}
				}
				JOINT LeftShoulder
				{
					OFFSET 0.000000 0.000000 0.000000
					CHANNELS 3 Zrotation Yrotation Xrotation
					JOINT LeftArm
					{
						OFFSET 3.362410 1.200890 -0.311210
						CHANNELS 3 Zrotation Yrotation Xrotation
						JOINT LeftForeArm
						{
							OFFSET 4.983000 -0.000000 -0.000000
							CHANNELS 3 Zrotation Yrotation Xrotation
							JOINT LeftHand
							{
								OFFSET 3.483560 -0.000000 -0.000000
								CHANNELS 3 Zrotation Yrotation Xrotation
								JOINT LeftFingerBase
								{
									OFFSET 0.000000 0.000000 0.000000
									CHANNELS 3 Zrotation Yrotation Xrotation
									JOINT LeftHandIndex1
									{
										OFFSET 0.715260 -0.000000 -0.000000
										CHANNELS 3 Zrotation Yrotation Xrotation
										End Site
										{
											OFFSET 0.000000 0.000000 0.000000
										}
									}
								}
								JOINT LThumb
								{
									OFFSET 0.000000 0.000000 0.000000
									CHANNELS 3 Zrotation Yrotation Xrotation
									End Site
									{
										OFFSET 0.000000 0.000000 0.000000
									}
								}
							}
						}
					}
				}
				JOINT RightShoulder
				{
					OFFSET 0.000000 0.000000 0.000000
					CHANNELS 3 Zrotation Yrotation Xrotation
					JOINT RightArm
					{
						OFFSET -3.136600 1.374050 -0.404650
						CHANNELS 3 Zrotation Yrotation Xrotation
						JOINT RightForeArm
						{
							OFFSET -5.241900 -0.000000 -0.000000
							CHANNELS 3 Zrotation Yrotation Xrotation
							JOINT RightHand
							{
								OFFSET -3.444170 -0.000000 -0.000000
								CHANNELS 3 Zrotation Yrotation Xrotation
								JOINT RightFingerBase
								{
									OFFSET 0.000000 0.000000 0.000000
									CHANNELS 3 Zrotation Yrotation Xrotation
									JOINT RightHandIndex1
									{
										OFFSET -0.622530 -0.000000 -0.000000
										CHANNELS 3 Zrotation Yrotation Xrotation
										End Site
										{
											OFFSET 0.000000 0.000000 0.000000
										}
									}
								}
								JOINT RThumb
								{
									OFFSET 0.000000 0.000000 0.000000
									CHANNELS 3 Zrotation Yrotation Xrotation
									End Site
									{
										OFFSET 0.000000 0.000000 0.000000
									}
								}
							}
						}
					}
				}
			}
		}
	}
}
}
MOTION
Frames: 18
Frame Time: 0.008333
1.009292 17.641127 -3.043770 160.884326 68.337703 -178.240360 2.050500 0.364577 2.732312 -0.151802 0.270328 -2.195229 -4.675463 0.288966 -0.283471 12.653418 6.410574 7.967367 -2.894509 -0.362653 3.867003 0.000000 0.000000 0.000000 -4.176566 -5.857962 0.248505 -61.147285 -26.738663 14.140595 -1.293835 -63.276172 -0.028423 6.497704 -4.269314 -0.268648 -0.151161 0.379005 0.000000 0.000000 0.000000 0.000000 0.000000 0.000000 0.000000 14.626752 6.624489 -0.169490 60.212425 46.119641 5.077949 1.366352 33.829539 -0.006174 -0.585979 9.703890 -0.048808 -0.023586 -0.274990 -0.000000 0.000000 0.000000 0.000000 0.000000 0.000000 0.000000 
1.094053 17.647572 -3.047429 161.003735 68.654353 -178.221411 2.008917 0.415694 2.728335 -0.167443 0.323161 -2.198575 -4.691771 0.343223 -0.290231 12.655685 6.349036 7.940388 -2.890283 -0.362531 3.859535 0.000000 0.000000 0.000000 -4.219772 -5.742217 0.280856 -61.082832 -26.303976 14.349669 -1.307509 -63.233200 -0.027271 6.401654 -4.253058 -0.263439 -0.151164 0.374048 0.000000 0.000000 0.000000 0.000000 0.000000 0.000000 0.000000 14.587865 6.656392 -0.226949 60.469648 46.443346 5.503972 1.332959 34.266066 -0.006542 -0.593134 9.686088 -0.049210 -0.025372 -0.278590 -0.000000 0.000000 0.000000 0.000000 0.000000 0.000000 0.000000 
1.179843 17.653510 -3.051120 161.089524 68.975166 -178.223840 1.953624 0.463056 2.720467 -0.186680 0.372855 -2.201744 -4.711840 0.394213 -0.290633 12.669941 6.281149 7.911578 -2.889256 -0.362488 3.851173 0.000000 0.000000 0.000000 -4.266738 -5.611948 0.316932 -61.021758 -25.838693 14.579730 -1.326450 -63.116311 -0.026134 6.324366 -4.235529 -0.259032 -0.151604 0.368267 0.000000 0.000000 0.000000 0.000000 0.000000 0.000000 0.000000 14.574465 6.675664 -0.290108 60.769104 46.728774 5.983184 1.304741 34.716711 -0.006877 -0.602042 9.679953 -0.049912 -0.026909 -0.281824 -0.000000 0.000000 0.000000 0.000000 0.000000 0.000000 0.000000 
1.266493 17.658972 -3.054758 161.147931 69.299260 -178.248130 1.888491 0.506365 2.715930 -0.208659 0.419078 -2.204066 -4.735651 0.441594 -0.288155 12.695675 6.215842 7.883042 -2.890391 -0.362502 3.842505 0.000000 0.000000 0.000000 -4.320618 -5.473461 0.358454 -60.957577 -25.338925 14.824106 -1.350454 -62.929797 -0.024987 6.258391 -4.211751 -0.254724 -0.152332 0.361636 0.000000 0.000000 0.000000 0.000000 0.000000 0.000000 0.000000 14.582038 6.692957 -0.358540 61.112771 46.961221 6.486039 1.280110 35.197321 -0.007130 -0.595177 9.663673 -0.049114 -0.028464 -0.284603 -0.000000 0.000000 0.000000 0.000000 0.000000 0.000000 0.000000 
1.354235 17.663753 -3.058315 161.159302 69.622613 -178.305886 1.805741 0.544978 2.706770 -0.234801 0.461428 -2.206942 -4.762082 0.484891 -0.281250 12.731161 6.144907 7.851791 -2.893819 -0.362569 3.832860 0.000000 0.000000 0.000000 -4.377761 -5.326954 0.404022 -60.896350 -24.806408 15.080566 -1.379719 -62.669932 -0.023791 6.194889 -4.180926 -0.250017 -0.153192 0.354153 0.000000 0.000000 0.000000 0.000000 0.000000 0.000000 0.000000 14.609628 6.699696 -0.431601 61.502709 47.150291 7.033226 1.260720 35.689898 -0.007349 -0.588964 9.661894 -0.048416 -0.029771 -0.287080 -0.000000 0.000000 0.000000 0.000000 0.000000 0.000000 0.000000 
1.443036 17.667811 -3.061814 161.127839 69.946229 -178.392599 1.708470 0.579950 2.693344 -0.264509 0.500804 -2.210063 -4.791151 0.525027 -0.268994 12.774028 6.063182 7.815241 -2.900000 -0.362684 3.821566 0.000000 0.000000 0.000000 -4.440713 -5.170801 0.453605 -60.837893 -24.249238 15.348275 -1.414629 -62.332765 -0.022512 6.125883 -4.141942 -0.244710 -0.154058 0.345826 0.000000 0.000000 0.000000 0.000000 0.000000 0.000000 0.000000 14.657098 6.691196 -0.508342 61.935806 47.302069 7.630062 1.246951 36.189595 -0.007537 -0.587424 9.675996 -0.048318 -0.030747 -0.289278 -0.000000 0.000000 0.000000 0.000000 0.000000 0.000000 0.000000 
1.532696 17.671135 -3.065328 161.063463 70.273508 -178.502087 1.602351 0.612627 2.679590 -0.296456 0.538356 -2.213601 -4.822003 0.563080 -0.255335 12.820740 5.979157 7.775744 -2.907502 -0.362819 3.809352 0.000000 0.000000 0.000000 -4.510735 -5.014038 0.507542 -60.782113 -23.658273 15.618216 -1.454743 -61.921638 -0.021142 6.045735 -4.094870 -0.238506 -0.154772 0.336684 0.000000 0.000000 0.000000 0.000000 0.000000 0.000000 0.000000 14.714980 6.677980 -0.588070 62.412254 47.401877 8.252157 1.237586 36.707205 -0.007666 -0.579334 9.693386 -0.047619 -0.031570 -0.291188 -0.000000 0.000000 0.000000 0.000000 0.000000 0.000000 0.000000 
1.623080 17.673705 -3.068972 160.973775 70.608305 -178.627028 1.491952 0.644842 2.665729 -0.329619 0.575686 -2.217832 -4.853921 0.600611 -0.241501 12.867442 5.894363 7.733309 -2.915808 -0.362961 3.796292 0.000000 0.000000 0.000000 -4.588664 -4.859727 0.565198 -60.732026 -23.032686 15.885315 -1.499952 -61.434458 -0.019679 5.951732 -4.042653 -0.231605 -0.155242 0.326784 0.000000 0.000000 0.000000 0.000000 0.000000 0.000000 0.000000 14.777380 6.662628 -0.669929 62.927987 47.447553 8.894750 1.232434 37.241681 -0.007737 -0.565188 9.714321 -0.046421 -0.032231 -0.292853 -0.000000 0.000000 0.000000 0.000000 0.000000 0.000000 0.000000 
1.714219 17.675437 -3.073009 160.869264 70.956177 -178.751316 1.382459 0.678934 2.646523 -0.363076 0.614730 -2.223009 -4.887166 0.639590 -0.223989 12.910520 5.800164 7.683530 -2.925950 -0.363110 3.781244 0.000000 0.000000 0.000000 -4.678419 -4.697775 0.625555 -60.691097 -22.389418 16.153565 -1.550976 -60.862341 -0.018118 5.841966 -3.987732 -0.224006 -0.155479 0.316186 0.000000 0.000000 0.000000 0.000000 0.000000 0.000000 0.000000 14.845308 6.636569 -0.753016 63.475028 47.453292 9.578051 1.232703 37.779971 -0.007774 -0.556266 9.749646 -0.045820 -0.032515 -0.294328 -0.000000 0.000000 0.000000 0.000000 0.000000 0.000000 0.000000 
1.806018 17.676305 -3.077604 160.762583 71.323471 -178.862877 1.280169 0.716985 2.622981 -0.395606 0.657258 -2.228802 -4.921794 0.681804 -0.202372 12.947086 5.698108 7.625428 -2.937984 -0.363256 3.763945 0.000000 0.000000 0.000000 -4.783060 -4.523206 0.688271 -60.660299 -21.736834 16.421961 -1.608064 -60.200164 -0.016483 5.718407 -3.932248 -0.215911 -0.155510 0.304947 0.000000 0.000000 0.000000 0.000000 0.000000 0.000000 0.000000 14.916588 6.602184 -0.836598 64.045121 47.421035 10.300075 1.238140 38.320748 -0.007772 -0.551380 9.796466 -0.045621 -0.032431 -0.295609 -0.000000 0.000000 0.000000 0.000000 0.000000 0.000000 0.000000 
1.898254 17.676328 -3.082821 160.665874 71.716547 -178.954332 1.190531 0.760534 2.600251 -0.425963 0.704636 -2.235224 -4.956964 0.728540 -0.181025 12.974560 5.600532 7.563115 -2.950585 -0.363394 3.745547 0.000000 0.000000 0.000000 -4.900910 -4.345593 0.752784 -60.642481 -21.062458 16.678294 -1.670296 -59.450910 -0.014817 5.587170 -3.880812 -0.207819 -0.155317 0.293160 0.000000 0.000000 0.000000 0.000000 0.000000 0.000000 0.000000 14.983330 6.572827 -0.919715 64.632396 47.336880 11.036942 1.247309 38.872815 -0.007697 -0.538142 9.842207 -0.044619 -0.032190 -0.296668 -0.000000 0.000000 0.000000 0.000000 0.000000 0.000000 0.000000 
1.990858 17.675481 -3.088783 160.589190 72.140374 -179.015800 1.117409 0.810789 2.578560 -0.453298 0.757864 -2.242774 -4.992121 0.780729 -0.162011 12.991448 5.514631 7.498750 -2.963101 -0.363524 3.726684 0.000000 0.000000 0.000000 -5.030734 -4.169340 0.818176 -60.641498 -20.359996 16.913483 -1.737016 -58.614785 -0.013148 5.453752 -3.836349 -0.200231 -0.154905 0.280901 0.000000 0.000000 0.000000 0.000000 0.000000 0.000000 0.000000 15.041382 6.555861 -1.001375 65.229896 47.194930 11.777864 1.259647 39.436390 -0.007532 -0.511144 9.882976 -0.042418 -0.031880 -0.297501 -0.000000 0.000000 0.000000 0.000000 0.000000 0.000000 0.000000 
2.083963 17.673685 -3.095544 160.530857 72.597678 -179.046328 1.059418 0.868059 2.556383 -0.478364 0.817265 -2.249749 -5.029381 0.838900 -0.137358 12.999487 5.428088 7.424801 -2.978312 -0.363668 3.705141 0.000000 0.000000 0.000000 -5.177882 -3.965476 0.884483 -60.654127 -19.671091 17.143193 -1.809991 -57.675473 -0.011501 5.322326 -3.795147 -0.192846 -0.154495 0.268181 0.000000 0.000000 0.000000 0.000000 0.000000 0.000000 0.000000 15.105622 6.537834 -1.081292 65.824906 47.025107 12.555150 1.276406 39.990961 -0.007305 -0.481576 9.929197 -0.040116 -0.031295 -0.298080 -0.000000 0.000000 0.000000 0.000000 0.000000 0.000000 0.000000 
2.177595 17.670932 -3.102989 160.489629 73.089222 -179.049271 1.015564 0.931792 2.536427 -0.501279 0.882394 -2.256209 -5.068325 0.902554 -0.109479 12.999861 5.349693 7.344172 -2.995548 -0.363832 3.681695 0.000000 0.000000 0.000000 -5.339180 -3.739030 0.951272 -60.681474 -18.989244 17.358943 -1.888521 -56.634266 -0.009906 5.198885 -3.756959 -0.186064 -0.154097 0.255051 0.000000 0.000000 0.000000 0.000000 0.000000 0.000000 0.000000 15.174658 6.527210 -1.158804 66.413318 46.819676 13.352599 1.296613 40.538127 -0.006992 -0.440008 9.973315 -0.036513 -0.030600 -0.298366 -0.000000 0.000000 0.000000 0.000000 0.000000 0.000000 0.000000 
2.271847 17.667172 -3.110989 160.455216 73.612583 -179.035647 0.981090 1.000670 2.519670 -0.522906 0.952213 -2.262587 -5.108453 0.970578 -0.080703 12.994731 5.286253 7.259553 -3.014327 -0.364033 3.657085 0.000000 0.000000 0.000000 -5.510492 -3.497328 1.018063 -60.724665 -18.305254 17.549275 -1.971713 -55.494933 -0.008387 5.085974 -3.719045 -0.179787 -0.153666 0.241545 0.000000 0.000000 0.000000 0.000000 0.000000 0.000000 0.000000 15.248771 6.529944 -1.232972 66.991562 46.573011 14.157640 1.319584 41.075715 -0.006577 -0.379270 10.011552 -0.031308 -0.029929 -0.298332 -0.000000 0.000000 0.000000 0.000000 0.000000 0.000000 0.000000 
2.366863 17.662352 -3.119382 160.413631 74.163300 -179.019917 0.950260 1.072895 2.506769 -0.544449 1.025239 -2.268490 -5.150137 1.041518 -0.049980 12.987349 5.236978 7.170303 -3.035278 -0.364292 3.631072 0.000000 0.000000 0.000000 -5.689887 -3.236900 1.084753 -60.782187 -17.627084 17.713636 -2.059574 -54.254583 -0.006958 4.985366 -3.676787 -0.173813 -0.153227 0.227686 0.000000 0.000000 0.000000 0.000000 0.000000 0.000000 0.000000 15.334206 6.543942 -1.303413 67.556540 46.290941 14.971442 1.345133 41.595182 -0.006064 -0.299088 10.044633 -0.024205 -0.029302 -0.297955 -0.000000 0.000000 0.000000 0.000000 0.000000 0.000000 0.000000 
2.462858 17.656428 -3.127940 160.346452 74.734449 -179.020395 0.916239 1.146361 2.497796 -0.567204 1.099741 -2.273993 -5.193150 1.113628 -0.017592 12.980772 5.201894 7.076882 -3.058485 -0.364622 3.603757 0.000000 0.000000 0.000000 -5.874284 -2.960854 1.151089 -60.853011 -16.954277 17.847253 -2.151666 -52.914009 -0.005628 4.896208 -3.625454 -0.167844 -0.152733 0.213501 0.000000 0.000000 0.000000 0.000000 0.000000 0.000000 0.000000 15.434296 6.567898 -1.369552 68.107056 45.974829 15.789901 1.372973 42.089337 -0.005458 -0.198497 10.072870 -0.015101 -0.028757 -0.297222 -0.000000 0.000000 0.000000 0.000000 0.000000 0.000000 0.000000 
2.559961 17.649383 -3.136491 160.234054 75.318302 -179.056985 0.872982 1.218918 2.492412 -0.592211 1.173887 -2.279520 -5.236905 1.185036 0.015045 12.977343 5.181068 6.980665 -3.083773 -0.365041 3.575533 0.000000 0.000000 0.000000 -6.059522 -2.678036 1.216672 -60.937133 -16.279929 17.941501 -2.247141 -51.476984 -0.004404 4.815899 -3.560599 -0.161680 -0.152087 0.199037 0.000000 0.000000 0.000000 0.000000 0.000000 0.000000 0.000000 15.550166 6.600461 -1.430771 68.643944 45.622990 16.607072 1.402652 42.552589 -0.004768 -0.077923 10.096454 -0.004297 -0.028322 -0.296144 -0.000000 0.000000 0.000000 0.000000 0.000000 0.000000 0.000000 
